<?xml version="1.0" standalone="no"?>
<!DOCTYPE svg PUBLIC "-//W3C//DTD SVG 20010904//EN"
 "http://www.w3.org/TR/2001/REC-SVG-20010904/DTD/svg10.dtd">
<svg version="1.0" xmlns="http://www.w3.org/2000/svg"
 width="320.000000pt" height="89.000000pt" viewBox="0 0 320.000000 89.000000"
 preserveAspectRatio="xMidYMid meet">

<g transform="translate(0.000000,89.000000) scale(0.100000,-0.100000)"
fill="#000000" stroke="none">
<path d="M213 862 c-70 -25 -132 -79 -168 -143 -23 -44 -30 -69 -33 -135 -4
-78 -3 -83 19 -95 37 -20 179 -15 309 10 111 23 216 25 262 6 14 -5 18 2 23
39 4 24 4 49 0 55 -4 7 -86 11 -246 11 -160 0 -239 3 -239 10 0 22 30 68 60
94 60 50 138 56 207 16 32 -19 34 -18 93 1 33 12 60 24 60 29 0 15 -74 73
-119 93 -64 28 -163 32 -228 9z"/>
<path d="M925 818 c-140 -49 -154 -218 -22 -267 15 -6 57 -18 94 -26 74 -17
93 -29 93 -56 0 -53 -94 -61 -188 -17 -26 12 -51 22 -56 22 -4 1 -17 -21 -27
-47 l-19 -48 57 -27 c75 -34 193 -42 258 -17 53 20 102 72 110 118 9 46 -19
112 -59 136 -17 11 -60 27 -96 36 -124 31 -152 53 -110 87 31 25 64 22 185
-17 17 -5 23 1 38 42 17 45 17 48 0 60 -43 32 -192 44 -258 21z"/>
<path d="M1432 811 c-165 -57 -224 -268 -112 -403 89 -108 275 -124 393 -34
76 58 111 173 82 273 -42 144 -206 218 -363 164z m175 -111 c57 -34 81 -121
55 -191 -12 -31 -65 -77 -99 -85 -65 -17 -155 49 -169 122 -9 51 21 122 65
151 43 29 104 30 148 3z"/>
<path d="M1868 824 c-5 -4 -8 -119 -8 -256 l0 -248 65 0 65 0 0 70 0 70 61 0
c129 0 206 44 229 130 24 89 -9 174 -82 211 -37 19 -63 23 -183 27 -77 2 -143
1 -147 -4z m277 -124 c26 -29 25 -85 -3 -113 -18 -18 -34 -22 -85 -22 l-62 0
-3 78 -3 77 69 0 c57 0 72 -4 87 -20z"/>
<path d="M2440 810 c-9 -16 -184 -421 -207 -478 -4 -10 10 -12 62 -10 l68 3
16 43 15 42 112 0 112 0 18 -45 17 -45 68 0 68 0 -55 133 c-31 72 -79 187
-107 255 l-51 122 -63 0 c-52 0 -64 -3 -73 -20z m106 -213 l31 -82 -65 -3
c-35 -2 -67 -1 -69 2 -3 3 10 43 27 91 18 47 36 83 39 79 3 -3 20 -42 37 -87z"/>
<path d="M2850 575 l0 -255 170 0 170 0 0 55 0 55 -105 0 -105 0 0 200 0 200
-65 0 -65 0 0 -255z"/>
<path d="M325 384 c-38 -8 -108 -18 -155 -22 l-85 -7 45 -33 c120 -88 286 -79
399 23 22 21 41 41 41 46 0 14 -167 9 -245 -7z"/>
<path d="M1880 181 c0 -28 -2 -29 -33 -24 -41 6 -67 -16 -67 -56 0 -40 27 -60
78 -58 l42 1 0 83 c0 49 -4 83 -10 83 -5 0 -10 -13 -10 -29z m-16 -44 c12 -9
17 -23 14 -42 -3 -27 -7 -30 -38 -30 -31 0 -35 3 -38 30 -3 26 17 55 38 55 3
0 14 -6 24 -13z"/>
<path d="M2154 125 c0 -50 1 -71 3 -48 2 23 2 64 0 90 -2 26 -3 8 -3 -42z"/>
<path d="M2884 125 c0 -50 1 -71 3 -48 2 23 2 64 0 90 -2 26 -3 8 -3 -42z"/>
<path d="M2940 200 c0 -5 5 -10 11 -10 5 0 7 5 4 10 -3 6 -8 10 -11 10 -2 0
-4 -4 -4 -10z"/>
<path d="M3137 203 c-12 -12 -7 -22 8 -17 8 4 15 10 15 15 0 11 -14 12 -23 2z"/>
<path d="M800 120 l0 -80 45 0 c25 0 45 5 45 10 0 6 -16 10 -35 10 l-35 0 0
70 c0 40 -4 70 -10 70 -6 0 -10 -33 -10 -80z"/>
<path d="M1122 118 c1 -46 3 -66 5 -45 4 36 5 37 44 37 21 0 39 5 39 10 0 6
-18 10 -40 10 -36 0 -40 3 -40 25 0 22 4 25 39 25 22 0 43 5 46 10 4 6 -13 10
-44 10 l-51 0 2 -82z"/>
<path d="M2415 175 c-16 -15 -25 -36 -25 -55 0 -35 38 -80 68 -80 11 0 25 -7
32 -15 15 -18 66 -20 76 -3 5 8 0 9 -15 5 -13 -3 -30 -3 -38 0 -12 5 -9 10 11
27 17 13 29 35 33 58 4 30 1 41 -20 62 -35 35 -89 35 -122 1z m107 -12 c39
-35 10 -103 -44 -103 -59 0 -89 60 -51 102 20 22 70 23 95 1z"/>
<path d="M2998 172 c-7 -26 7 -111 20 -124 6 -6 19 -7 29 -3 16 6 16 8 -4 16
-18 6 -23 16 -23 44 0 28 4 35 20 35 11 0 20 5 20 10 0 6 -9 10 -20 10 -11 0
-20 7 -20 15 0 21 -17 19 -22 -3z"/>
<path d="M927 153 c-15 -14 -6 -23 12 -13 23 12 51 3 51 -15 0 -9 -14 -15 -37
-17 -35 -3 -38 -6 -38 -33 0 -29 2 -30 48 -31 l47 -2 0 47 c0 26 -5 52 -12 59
-13 13 -60 16 -71 5z m63 -68 c0 -21 -32 -35 -53 -23 -14 8 -16 13 -6 24 15
19 59 18 59 -1z"/>
<path d="M1247 142 c-22 -24 -21 -65 1 -85 40 -36 102 -9 102 45 0 51 -69 78
-103 40z m81 -45 c-3 -27 -8 -33 -32 -35 -32 -4 -46 10 -46 46 0 27 36 44 63
30 13 -7 17 -18 15 -41z"/>
<path d="M1380 100 c0 -33 4 -60 10 -60 6 0 10 18 10 39 0 31 6 44 28 60 18
13 22 20 12 21 -9 0 -21 -5 -28 -12 -9 -9 -12 -9 -12 0 0 7 -4 12 -10 12 -6 0
-10 -27 -10 -60z"/>
<path d="M1476 145 c-22 -22 -20 -68 3 -89 20 -19 72 -19 78 0 2 6 -10 8 -31
6 -42 -5 -64 24 -45 59 8 17 18 20 45 17 21 -2 33 0 31 6 -6 18 -63 18 -81 1z"/>
<path d="M1597 142 c-38 -42 -6 -107 49 -100 15 2 29 8 31 14 2 6 -10 8 -30 6
-25 -3 -36 1 -40 12 -5 13 1 16 38 16 52 0 63 12 41 45 -20 30 -65 33 -89 7z
m64 -2 c31 -17 22 -30 -21 -30 -42 0 -52 12 -22 29 21 13 20 13 43 1z"/>
<path d="M1962 153 c-21 -8 -33 -50 -22 -78 10 -27 47 -41 79 -30 33 10 25 21
-12 17 -22 -2 -38 2 -46 12 -12 14 -8 16 38 16 44 0 51 3 51 19 0 39 -45 61
-88 44z m54 -17 c26 -19 14 -28 -32 -24 -36 3 -37 4 -20 21 21 21 27 21 52 3z"/>
<path d="M2217 153 c-15 -14 -6 -23 12 -13 23 12 51 3 51 -16 0 -8 -10 -14
-24 -14 -39 0 -56 -11 -56 -35 0 -26 18 -35 68 -33 31 1 32 2 32 48 0 25 -5
51 -12 58 -13 13 -60 16 -71 5z m63 -68 c0 -21 -32 -35 -53 -23 -14 8 -16 13
-6 24 15 19 59 18 59 -1z"/>
<path d="M2590 112 c0 -52 12 -72 45 -72 12 0 26 5 33 12 9 9 12 9 12 0 0 -7
5 -12 10 -12 6 0 10 27 10 60 0 68 -17 82 -22 19 -3 -45 -24 -67 -52 -56 -11
5 -16 19 -16 52 0 25 -4 45 -10 45 -5 0 -10 -22 -10 -48z"/>
<path d="M2753 153 c-7 -2 -13 -9 -13 -14 0 -5 11 -4 25 3 19 8 28 8 40 -2 24
-20 18 -30 -19 -30 -41 0 -65 -24 -49 -48 7 -12 25 -17 56 -18 l46 -1 -5 46
c-3 25 -7 52 -10 59 -3 12 -47 15 -71 5z m61 -61 c7 -11 -7 -30 -24 -32 -28
-4 -40 0 -40 14 0 22 52 36 64 18z"/>
<path d="M2940 100 c0 -33 4 -60 10 -60 6 0 10 27 10 60 0 33 -4 60 -10 60 -6
0 -10 -27 -10 -60z"/>
<path d="M3098 149 c-23 -13 -24 -72 -2 -93 16 -17 41 -20 68 -10 27 10 18 19
-21 19 -20 0 -38 6 -40 13 -3 8 9 12 41 12 39 0 46 3 46 19 0 42 -52 64 -92
40z m67 -19 c18 -20 17 -20 -30 -20 -47 0 -48 0 -30 20 10 11 23 20 30 20 7 0
20 -9 30 -20z"/>
</g>
</svg>
